P2
# CREATOR: GIMP PNM Filter Version 1.1
100 100
255
113
114
113
113
113
113
114
113
113
113
114
114
115
115
115
115
115
115
114
115
115
115
117
115
115
115
115
115
115
115
114
114
114
114
115
114
115
117
118
117
118
119
120
120
121
121
123
122
124
124
126
127
129
131
134
136
138
141
143
144
145
146
146
146
146
146
146
146
147
147
148
148
148
149
149
149
149
149
149
149
150
149
149
150
149
149
149
148
147
147
146
146
146
145
145
144
144
145
144
145
112
113
112
113
114
114
113
114
114
113
115
116
114
115
115
115
115
115
115
115
114
116
116
116
115
115
116
116
114
115
114
114
115
115
116
116
116
117
117
118
120
120
120
121
122
122
123
122
123
125
125
128
130
132
134
136
138
140
142
143
145
144
145
145
145
145
145
145
145
145
147
147
147
148
149
149
150
149
150
150
150
150
150
150
149
150
149
147
149
148
146
147
146
146
146
146
144
146
146
146
113
113
113
113
114
114
114
113
114
113
114
115
115
116
114
116
115
116
115
115
116
117
115
116
116
117
115
115
116
115
116
115
115
115
116
116
117
118
119
120
120
122
123
122
123
124
123
123
125
125
126
128
129
132
134
136
138
140
140
142
142
143
143
143
144
144
143
143
144
144
145
146
146
147
148
149
149
150
150
150
150
149
151
150
149
149
149
148
148
148
147
147
147
146
147
147
146
147
146
146
113
113
113
113
115
114
115
114
115
115
115
115
115
115
115
117
115
115
116
115
116
116
117
117
116
116
116
116
117
116
115
116
116
116
116
117
118
119
120
121
122
122
123
123
122
123
125
124
125
127
127
129
131
132
133
135
136
138
140
140
141
141
142
142
142
142
142
142
143
142
145
144
145
146
148
149
149
149
150
150
149
150
150
150
149
150
149
148
149
148
148
149
147
147
147
148
148
147
147
147
113
113
114
113
114
114
115
115
114
115
115
116
115
115
116
116
114
116
115
116
116
116
116
110
106
116
116
117
116
117
116
116
116
118
117
119
119
121
122
122
123
123
123
124
124
124
124
126
126
127
128
129
131
132
134
134
136
138
138
139
139
139
139
140
139
140
140
140
141
141
142
143
144
146
147
148
149
148
150
150
150
151
150
150
150
150
149
148
149
148
149
148
149
148
148
148
148
148
147
148
113
113
114
114
114
115
115
115
116
115
115
116
115
114
115
116
115
116
116
117
115
118
109
119
117
120
116
116
117
116
117
118
118
122
121
120
122
122
122
123
123
123
125
125
124
125
124
126
126
127
128
130
132
132
134
135
136
135
137
137
137
138
138
138
139
138
138
139
139
139
141
142
143
144
146
146
148
149
150
150
151
151
151
150
150
150
149
149
149
148
149
149
148
149
149
149
149
148
147
148
114
114
115
114
115
115
115
116
115
115
116
115
115
115
116
116
116
116
116
117
117
111
115
119
118
124
117
117
117
117
117
118
121
120
121
121
122
123
123
123
124
124
125
125
125
125
125
126
127
127
129
130
130
131
133
132
133
135
134
135
135
135
136
136
136
135
136
137
138
139
140
141
143
144
145
146
148
148
149
150
150
151
150
150
150
150
149
149
149
150
150
149
150
149
150
150
149
148
149
148
114
115
115
115
115
116
116
117
114
117
116
117
115
116
115
115
115
116
116
116
117
118
118
117
119
127
117
118
118
117
118
119
123
113
128
123
123
123
123
124
125
125
126
126
126
127
126
127
127
128
129
129
131
131
132
131
133
132
133
133
134
134
135
134
136
136
136
136
136
137
138
140
140
143
144
146
146
147
148
150
150
150
151
151
150
150
150
149
151
150
150
150
150
149
150
151
150
150
148
148
115
115
114
115
116
115
116
116
116
116
116
116
117
115
116
116
117
116
116
116
117
115
122
116
120
125
117
117
118
118
119
120
132
126
126
123
123
124
124
126
125
126
126
126
127
126
127
128
128
128
128
129
130
130
131
131
132
132
132
132
133
133
132
133
134
133
134
135
135
136
137
138
140
142
143
144
145
146
148
149
150
151
151
151
150
151
151
151
150
151
150
150
151
150
151
150
150
150
149
149
114
115
115
116
116
117
116
118
117
118
117
116
117
116
116
117
116
117
116
117
120
123
119
118
123
127
117
119
118
120
120
122
138
135
122
127
121
125
125
127
127
125
127
126
127
126
127
127
128
128
128
128
129
129
130
130
130
131
131
130
130
131
132
132
132
131
132
133
131
135
137
137
139
140
141
143
145
145
147
148
149
150
150
150
151
150
150
150
151
150
151
151
151
150
150
150
150
150
149
149
116
116
116
116
117
117
117
117
118
118
117
117
116
117
116
116
116
117
118
120
128
126
115
120
126
128
118
120
120
120
121
124
139
137
123
115
124
125
127
126
126
126
126
125
127
127
127
128
128
127
129
129
128
130
129
129
129
129
129
129
129
131
130
132
131
131
130
121
119
130
134
136
136
139
140
141
143
145
147
147
149
149
151
150
151
151
151
150
151
150
151
150
152
150
151
150
150
150
149
150
116
118
117
117
118
118
118
119
119
118
119
118
117
117
118
118
116
116
120
127
125
123
118
122
131
129
118
119
121
122
123
111
120
139
125
109
124
121
127
127
127
126
127
128
126
127
127
127
127
129
128
129
128
128
128
128
128
128
128
129
129
128
129
129
133
131
121
124
132
135
135
134
135
136
139
140
142
144
145
146
148
149
150
150
150
150
150
151
152
150
152
152
151
151
152
151
150
150
151
150
117
118
118
119
120
120
119
120
119
120
119
118
118
118
117
117
117
121
129
132
129
119
118
123
132
131
120
121
122
123
123
93
77
120
126
113
115
136
123
127
127
127
127
128
127
127
128
128
128
129
129
127
129
128
128
128
128
130
128
128
129
130
134
137
135
130
127
128
132
133
135
137
138
137
137
138
140
143
144
146
147
149
150
150
151
151
152
152
152
151
152
152
152
151
152
150
151
150
150
150
119
119
118
120
120
120
120
120
121
119
120
120
119
119
119
118
119
127
133
132
128
118
120
127
134
131
120
122
124
123
121
88
75
89
120
116
106
126
132
126
129
128
128
128
127
127
129
128
128
129
127
128
128
129
128
129
128
129
128
130
136
142
143
140
134
129
131
129
131
133
137
141
141
142
140
137
140
141
143
145
148
147
149
150
151
151
152
152
152
153
153
153
152
152
151
152
151
151
150
150
119
120
120
120
121
120
120
121
121
121
121
121
119
119
119
119
122
135
133
132
130
119
124
131
132
129
122
127
129
127
115
85
85
92
92
107
103
113
137
123
128
129
129
129
128
129
128
129
129
129
129
128
129
129
128
128
128
132
140
145
143
145
141
136
131
129
130
127
132
134
139
145
146
146
144
141
139
140
142
144
146
149
149
149
151
152
153
152
153
153
153
151
152
151
152
151
152
151
150
151
120
120
120
121
120
122
121
122
121
121
122
120
121
120
120
119
126
134
133
135
126
120
127
132
129
127
125
134
130
127
106
89
93
104
102
101
95
102
129
132
125
128
128
128
128
129
129
129
130
130
130
129
130
129
129
131
140
149
147
145
143
141
139
134
129
129
129
130
134
138
140
144
146
147
144
146
143
140
141
144
146
148
150
150
151
152
153
154
152
153
153
152
153
153
153
152
151
151
150
151
121
121
120
121
122
121
122
122
123
123
122
121
122
122
121
121
137
136
141
136
124
125
131
128
126
126
128
138
132
122
101
92
102
109
109
102
98
91
108
140
124
128
129
129
128
129
130
130
129
131
131
130
130
132
139
149
152
148
145
143
142
140
128
120
129
131
130
132
135
137
139
144
147
148
146
147
145
144
141
143
145
147
150
150
143
131
103
94
133
154
152
153
153
153
153
152
152
152
151
151
122
123
121
122
122
123
123
123
123
122
123
122
122
122
121
134
141
140
136
140
124
131
129
126
125
126
131
135
129
119
96
95
109
108
111
99
97
95
89
112
124
128
131
129
130
130
130
131
131
131
132
132
135
148
154
152
149
143
141
139
137
119
81
67
113
132
131
132
137
141
145
146
148
149
146
145
149
147
143
142
145
143
120
109
105
110
97
78
82
155
153
153
153
152
152
154
153
153
152
152
123
122
122
123
123
124
123
124
123
124
123
124
124
124
125
137
144
145
139
139
127
130
125
123
125
129
133
132
129
112
93
104
115
111
111
102
95
92
88
87
106
122
131
131
130
131
130
132
132
132
133
137
147
151
150
147
140
128
121
112
103
100
73
63
78
130
133
136
142
145
148
148
151
150
149
148
149
149
147
137
122
106
105
107
111
109
97
72
66
136
154
154
154
153
154
152
153
153
153
152
123
123
123
123
123
123
124
125
125
124
125
123
124
124
128
142
144
143
145
136
128
126
122
124
129
131
130
130
128
111
93
106
114
117
115
99
89
86
84
83
86
110
128
131
130
131
131
132
132
132
132
134
142
146
142
117
108
112
117
108
109
98
70
66
71
93
132
141
145
147
150
151
153
151
151
152
150
146
120
104
110
114
113
108
107
99
89
63
67
117
156
154
154
154
153
153
153
154
152
153
124
124
124
124
125
125
126
125
126
126
125
125
125
124
130
144
146
147
145
135
127
126
122
133
136
133
131
126
127
105
91
107
115
116
115
99
89
87
85
83
83
87
119
131
131
131
132
133
132
129
127
126
129
131
118
113
120
114
116
113
109
97
71
67
73
76
105
144
146
150
152
153
153
153
152
151
132
104
104
112
111
117
113
107
104
98
83
58
66
108
156
155
155
154
154
155
154
154
153
154
126
126
126
126
125
126
127
126
126
126
125
125
125
124
133
145
152
148
142
132
124
123
123
133
133
138
132
126
125
105
96
106
113
114
115
102
94
90
85
88
82
83
98
128
131
132
131
133
130
124
123
123
116
113
117
120
122
120
119
114
109
100
74
76
75
79
72
123
149
151
154
154
153
152
148
114
102
109
112
118
115
112
115
108
97
90
74
54
64
111
156
154
155
154
154
156
154
154
154
154
128
129
128
129
127
128
128
127
127
127
127
127
127
125
138
147
149
145
144
131
123
116
117
134
130
138
133
124
123
99
95
103
109
117
116
100
97
91
83
85
83
83
89
99
130
131
133
131
124
120
124
119
117
117
116
123
124
122
120
116
108
97
74
76
77
80
77
80
138
154
153
154
156
136
104
101
105
113
115
116
115
109
108
103
93
83
68
54
64
121
156
155
155
155
155
155
154
155
154
154
130
130
130
129
129
128
129
129
128
127
127
126
125
128
144
151
151
145
142
127
119
97
115
135
133
134
135
122
119
98
98
104
108
117
115
101
101
99
85
84
79
78
82
86
112
132
132
127
122
119
126
122
121
121
123
123
123
122
118
117
110
94
71
78
87
84
82
75
90
151
154
155
129
89
102
108
113
118
114
112
108
107
106
99
86
75
63
54
64
136
156
155
155
155
156
155
155
155
153
155
132
132
133
132
132
131
130
131
129
128
128
128
127
132
146
150
149
151
142
126
112
99
117
133
130
133
135
124
115
96
95
103
108
113
113
102
101
98
85
82
79
82
85
86
91
126
128
123
128
129
127
127
128
122
124
128
127
127
120
112
112
93
71
85
90
86
88
82
70
98
153
128
90
89
99
107
116
115
111
106
110
106
103
94
81
70
61
51
64
152
156
155
156
155
155
156
154
155
155
155
135
134
134
133
133
132
132
131
129
130
129
129
128
131
147
148
147
146
143
123
106
106
120
130
130
129
134
124
111
89
97
104
108
112
112
100
97
90
87
81
77
80
84
85
87
112
122
123
131
134
132
125
134
129
129
130
130
128
123
112
103
89
70
88
95
89
89
83
77
72
94
83
86
94
100
103
109
110
110
107
108
99
94
87
74
65
57
54
80
158
156
156
156
155
155
155
155
155
155
153
137
136
137
136
136
134
133
132
132
130
130
129
128
138
144
144
150
148
145
113
100
102
123
129
129
127
131
126
109
89
99
101
105
109
107
96
95
95
95
82
79
82
84
84
105
118
124
127
132
135
139
131
136
132
129
134
135
128
122
113
97
83
71
92
97
95
96
89
79
73
70
81
88
92
97
100
102
103
107
102
101
95
92
74
69
63
51
53
104
158
156
155
155
155
155
155
155
155
155
154
140
138
138
137
136
135
135
134
132
131
130
130
131
143
144
149
148
155
144
109
100
102
127
129
133
131
132
128
107
89
96
104
105
105
106
98
101
101
96
84
78
79
82
99
115
121
128
134
137
135
143
135
135
135
128
134
133
124
120
113
100
76
73
95
102
94
99
90
77
74
74
69
86
90
95
95
95
100
102
101
89
89
84
67
70
62
50
55
128
156
157
156
154
156
154
154
155
155
154
154
139
139
138
137
136
135
134
134
134
131
131
131
132
142
147
148
146
148
141
107
98
104
137
136
137
128
130
130
104
88
94
102
102
102
100
98
105
105
97
84
77
81
92
113
122
127
130
133
139
137
139
138
138
138
133
131
128
125
117
114
98
72
71
95
99
94
97
91
79
78
75
70
75
89
91
93
93
97
95
95
87
82
73
67
70
60
47
65
144
156
156
155
155
155
154
155
155
154
155
155
138
138
138
136
136
135
134
133
133
132
131
131
132
139
149
146
145
144
141
107
95
115
135
143
137
124
128
128
99
88
91
100
98
103
99
104
107
104
95
85
87
91
112
121
128
132
138
142
143
142
140
137
133
137
133
127
126
122
116
109
96
69
72
93
98
98
98
90
77
76
77
77
67
79
92
93
90
92
90
90
81
79
70
67
66
60
47
74
153
155
156
155
155
154
155
155
154
155
155
155
138
137
138
137
134
135
133
133
133
132
131
131
133
146
145
145
149
146
138
107
97
121
134
143
133
120
126
119
92
85
100
88
85
94
95
109
111
104
92
85
94
113
119
124
131
136
140
145
146
145
141
142
139
134
135
128
123
122
111
107
95
70
72
93
94
103
98
93
79
76
77
77
72
66
85
95
88
84
85
82
79
73
66
66
66
53
49
101
157
155
154
156
155
155
155
154
155
155
155
155
138
136
137
136
136
134
133
133
132
130
131
132
130
143
144
152
146
145
137
105
99
131
130
138
134
122
125
120
92
96
106
92
86
100
86
107
107
101
90
91
108
119
120
126
135
141
141
142
142
143
141
142
140
132
133
130
121
118
110
104
94
69
73
87
97
98
95
89
82
76
78
77
76
65
77
93
89
79
78
77
72
73
65
63
59
45
53
134
156
156
156
156
155
155
155
155
155
155
155
156
135
136
135
134
135
134
133
131
131
130
131
131
129
141
143
158
141
144
138
102
102
134
129
139
137
125
124
119
109
111
106
92
90
105
85
90
99
97
85
105
119
125
125
126
132
146
145
143
142
143
139
141
141
134
131
131
119
108
107
99
90
67
71
85
92
92
97
86
85
78
76
76
76
63
65
87
88
78
78
72
69
69
61
62
54
43
66
157
155
156
156
156
156
155
155
156
155
155
155
154
134
134
135
135
134
132
132
131
131
130
130
131
127
137
148
149
145
140
136
96
103
133
129
139
134
123
123
124
125
121
108
93
94
101
94
84
92
94
91
111
119
125
129
131
136
144
148
143
144
146
139
135
139
132
128
127
121
111
101
95
88
64
70
87
93
94
98
86
85
80
74
73
72
66
62
76
83
77
70
65
68
64
60
58
47
49
103
158
156
155
155
156
155
156
154
155
154
155
155
155
134
133
133
133
131
131
131
130
130
129
130
131
125
134
145
144
141
136
137
98
102
129
133
136
128
125
125
124
132
124
107
92
103
100
103
93
87
83
96
116
120
128
130
131
140
143
143
141
143
143
139
129
130
126
129
123
121
111
94
86
81
61
76
87
94
98
96
82
83
79
74
76
75
68
63
66
76
70
64
63
67
59
55
46
47
57
135
156
156
156
157
155
155
156
155
155
155
156
155
155
132
133
131
132
131
130
129
129
130
128
129
129
127
141
147
147
141
142
138
101
108
129
131
135
131
126
121
129
134
124
105
96
102
100
102
105
83
78
96
111
121
128
133
127
139
142
140
139
144
144
139
131
126
120
126
125
118
107
90
83
72
60
73
84
92
97
94
83
83
81
74
78
74
66
64
68
71
65
59
61
63
59
53
41
51
68
150
155
156
156
156
156
155
155
155
155
155
156
155
155
131
132
131
131
131
129
129
129
129
129
129
130
128
140
146
143
146
143
139
98
103
132
127
131
132
126
127
137
133
126
105
101
108
104
99
110
94
74
89
113
124
127
132
130
140
141
137
143
146
144
136
132
124
120
126
122
114
102
89
78
65
61
77
89
91
92
94
82
81
77
76
77
71
69
67
63
65
57
56
65
61
52
49
42
50
96
157
156
157
157
156
156
156
155
155
156
155
155
155
155
130
130
130
129
130
129
129
129
128
129
129
130
127
135
140
140
146
135
140
98
105
132
132
127
128
129
131
138
129
118
105
105
114
105
96
110
112
80
74
111
128
130
134
132
136
135
134
136
141
137
133
129
121
117
123
116
106
94
88
81
62
64
79
89
93
94
87
76
74
75
78
75
73
72
69
65
64
53
60
64
57
50
51
42
52
97
158
156
156
156
157
157
156
155
155
155
155
154
154
155
129
130
130
130
130
129
129
127
128
128
129
129
127
132
134
141
144
140
141
98
112
140
132
128
133
137
132
138
133
116
110
109
115
108
98
103
110
102
73
95
125
129
132
130
139
140
139
131
136
136
134
128
116
112
119
114
101
100
87
81
60
64
78
86
92
93
85
72
76
74
73
71
73
71
72
65
60
53
61
60
53
47
51
45
53
86
158
157
156
157
156
157
156
155
155
155
155
155
156
155
128
129
129
129
129
129
129
128
129
129
130
130
125
123
137
139
143
140
137
106
141
143
138
128
140
140
138
136
131
113
107
113
112
107
105
105
107
109
98
78
111
127
135
132
138
142
143
136
134
130
133
126
115
110
112
105
99
101
86
79
58
69
76
86
93
89
78
71
76
73
72
69
73
69
68
60
58
54
63
55
50
49
51
46
47
74
155
157
156
157
156
157
156
156
154
156
155
154
155
155
129
129
128
129
130
129
128
129
128
129
130
130
123
132
136
141
144
137
142
138
148
144
136
129
146
140
137
131
125
109
107
121
114
107
105
103
105
107
111
94
91
123
133
132
135
138
141
129
126
131
133
125
111
104
105
102
96
94
82
75
59
69
81
88
85
82
72
70
74
72
69
69
68
70
65
61
58
57
55
53
50
57
51
44
46
73
154
156
157
157
156
156
155
156
156
156
155
155
156
155
130
130
130
130
129
129
128
129
128
129
129
130
124
134
134
142
144
139
141
136
147
141
135
135
147
138
132
129
115
106
112
122
114
112
111
103
106
117
112
113
93
115
134
137
131
138
137
128
120
127
129
127
111
102
100
98
98
89
79
69
58
71
83
83
82
79
70
74
73
76
69
68
66
66
65
62
58
58
50
46
52
58
55
43
47
73
156
156
157
156
157
156
157
156
155
157
155
155
154
155
129
129
129
130
128
130
128
129
128
128
130
130
124
127
133
142
141
143
143
140
146
138
141
144
140
137
134
129
108
101
112
118
114
119
109
100
110
110
110
118
107
96
131
136
127
133
136
123
118
122
122
119
103
104
97
94
93
84
76
66
61
72
80
80
81
75
72
70
72
68
64
64
64
65
66
61
62
53
50
45
56
56
54
43
47
85
158
157
157
156
157
157
156
156
156
155
154
154
154
154
129
130
129
128
129
129
130
127
129
128
129
129
126
129
132
134
144
142
146
141
144
142
140
146
133
135
129
126
103
106
119
118
112
115
106
107
113
108
111
111
107
93
118
134
127
129
133
125
115
121
119
115
98
100
97
96
88
82
74
61
63
70
74
80
74
71
70
71
71
67
62
66
65
67
63
59
58
47
47
47
61
56
51
45
45
101
159
157
157
157
157
156
156
156
155
155
155
155
154
154
129
129
128
129
128
129
129
128
129
130
130
131
128
129
133
140
139
143
146
140
143
139
138
143
133
136
129
124
99
108
121
116
109
120
103
112
112
103
107
104
105
110
107
124
126
123
129
121
114
116
114
106
96
96
92
93
87
79
72
54
63
71
74
74
71
64
70
69
69
63
64
66
65
65
64
58
57
46
44
58
64
58
51
46
45
131
158
157
157
157
157
156
157
156
156
155
155
155
155
155
128
129
129
128
128
129
128
128
129
129
130
131
130
124
132
134
140
146
143
138
140
135
139
140
132
134
129
116
94
107
120
112
113
117
110
119
115
104
102
99
106
112
110
121
122
124
121
112
110
115
111
93
93
96
94
96
85
75
68
55
68
69
73
72
60
60
71
66
63
62
66
64
66
64
61
55
52
42
51
62
68
65
53
45
52
157
157
157
157
157
157
156
156
156
155
156
155
155
155
155
129
128
129
129
129
128
128
129
130
130
131
132
131
118
128
130
135
143
143
137
140
141
139
135
131
133
129
109
94
113
119
118
119
119
112
117
114
106
97
96
105
114
113
122
118
119
122
110
103
111
106
88
87
94
94
94
81
74
65
56
65
69
76
71
54
58
64
66
67
64
68
67
65
63
56
53
49
40
57
64
69
63
54
45
73
160
157
158
157
158
157
156
156
156
156
155
156
155
155
155
129
129
128
130
129
129
129
130
129
130
131
132
133
115
119
129
132
142
143
141
137
140
139
130
131
129
128
106
93
108
117
123
119
120
111
112
107
102
95
94
96
107
111
113
112
117
115
108
98
108
98
79
88
93
95
87
75
69
58
58
65
70
72
63
52
60
61
64
67
67
67
64
62
62
56
50
47
48
61
69
73
60
54
45
106
159
157
158
157
157
157
157
157
156
156
155
155
156
155
154
128
129
129
129
129
129
128
129
129
129
131
132
132
121
117
127
125
143
140
137
138
135
138
131
131
129
127
104
89
110
116
120
120
115
107
109
103
101
96
91
93
101
113
105
104
112
109
111
99
95
92
79
90
93
90
81
68
61
54
60
65
68
67
62
48
59
61
63
70
68
62
61
60
60
58
54
53
56
57
62
66
56
51
50
135
157
157
157
157
158
158
157
156
157
156
156
155
156
154
154
129
129
127
129
129
128
129
129
128
131
131
132
132
130
113
119
126
140
137
136
139
132
136
130
126
127
126
101
89
113
115
119
115
108
106
105
106
99
94
89
95
101
105
95
99
111
112
106
100
87
87
75
89
87
85
76
67
62
53
62
63
58
62
52
46
57
60
68
68
62
61
62
61
57
56
54
54
60
61
61
59
61
50
61
152
156
158
157
158
158
158
158
157
158
156
157
155
156
155
155
129
129
129
127
128
128
129
130
130
130
130
132
133
134
117
119
129
137
136
133
139
134
131
127
127
125
121
98
92
114
119
115
115
104
103
103
100
97
98
96
102
97
101
99
95
111
109
102
100
81
80
77
84
84
80
74
65
54
52
61
59
56
60
46
47
59
65
68
66
59
61
58
62
53
50
56
57
61
63
59
61
62
51
86
158
157
157
158
158
157
157
157
157
157
157
156
155
156
155
155
128
129
129
128
128
129
127
129
130
131
133
132
133
133
124
114
126
135
133
132
137
133
128
131
123
126
120
87
91
111
120
120
112
96
97
100
96
98
102
91
90
95
96
98
87
101
103
96
92
80
68
80
81
80
73
69
57
47
51
57
54
55
49
42
49
59
67
64
58
60
58
59
56
53
51
62
63
60
61
58
57
61
49
124
158
157
158
158
158
157
157
157
157
157
156
157
156
155
155
154
129
128
128
128
128
129
128
129
130
131
132
132
132
133
128
113
120
136
132
130
135
136
125
127
124
124
115
82
88
109
114
120
109
96
98
103
97
94
97
97
88
92
92
94
81
93
99
91
87
79
66
79
83
78
69
58
52
45
52
53
53
50
44
43
52
60
64
61
60
58
55
54
55
49
57
63
66
62
62
59
57
59
56
156
156
158
158
158
159
158
157
157
157
157
157
157
155
155
155
155
129
129
128
129
128
127
129
129
129
131
131
133
133
133
131
112
112
134
130
127
132
128
118
124
123
123
113
78
86
109
113
115
107
88
103
99
101
96
97
89
89
82
85
93
80
92
90
91
87
77
61
75
78
73
60
51
48
43
50
52
51
46
41
44
55
65
66
54
60
55
55
55
48
55
56
65
63
64
58
58
56
56
97
158
156
157
158
157
157
158
158
158
157
158
157
156
156
156
155
154
129
128
129
127
129
129
129
129
129
131
131
132
132
132
134
117
111
135
130
125
132
128
118
120
117
116
106
74
90
109
109
107
101
83
103
98
102
96
95
92
86
76
79
84
77
88
93
86
80
76
63
73
72
67
53
48
42
47
53
49
44
42
38
45
56
62
57
52
55
54
54
50
51
58
61
67
59
63
55
52
54
57
137
157
157
158
158
158
158
159
158
158
157
157
156
156
156
156
155
154
128
128
127
128
128
128
129
129
129
132
132
133
133
133
134
122
106
132
129
125
125
127
116
117
111
111
101
73
86
99
105
107
98
89
101
93
101
96
92
91
80
76
77
83
69
78
87
80
71
69
63
69
64
56
48
47
40
52
48
44
41
38
41
51
60
55
51
51
54
54
49
45
53
60
62
61
57
57
54
51
55
90
158
156
158
157
159
158
158
158
158
157
156
157
156
157
156
155
156
154
127
128
128
128
128
127
128
129
131
131
131
132
133
133
134
133
105
131
127
122
126
123
120
117
117
111
96
69
81
97
99
102
98
85
91
96
98
96
100
86
81
71
75
77
67
79
86
80
70
64
55
63
59
52
48
41
40
47
44
39
40
35
44
54
56
49
50
55
52
49
46
46
53
60
62
63
57
51
52
48
63
153
156
157
157
158
157
157
157
158
158
157
157
156
156
156
156
155
155
154
127
128
127
128
128
128
128
129
131
130
132
132
132
132
132
134
110
130
127
118
119
123
121
118
116
109
95
73
88
96
94
98
93
85
87
91
90
85
89
82
74
66
67
73
67
73
77
74
69
53
57
62
52
48
45
36
40
42
41
38
36
38
47
49
52
50
53
54
51
46
41
54
53
57
62
61
55
55
49
52
113
156
157
157
157
158
157
158
158
157
157
157
157
156
156
157
156
155
155
155
127
127
127
127
127
127
129
130
130
131
132
132
132
132
132
132
117
120
126
122
116
118
120
107
105
106
93
73
83
87
89
91
88
86
83
89
88
74
84
80
66
61
60
67
59
64
70
67
66
51
54
55
49
50
43
35
39
40
38
34
34
45
51
52
52
49
54
50
46
42
48
57
53
62
61
61
53
51
49
68
151
155
157
157
157
158
158
159
157
157
157
158
156
157
156
157
155
156
156
155
127
127
126
127
127
127
128
129
130
131
132
132
132
132
132
132
128
110
128
118
114
121
118
103
99
102
95
67
78
83
82
85
81
81
81
84
79
79
83
75
65
57
60
63
51
64
73
70
58
48
53
51
43
44
37
34
40
37
36
36
36
49
51
51
46
50
48
42
44
41
53
56
54
65
56
55
50
53
56
133
157
156
157
157
158
158
158
159
157
158
157
157
156
156
155
156
155
155
155
155
125
126
126
127
127
126
128
130
131
131
132
132
132
131
132
133
132
108
125
119
108
118
120
104
103
100
92
72
81
81
80
83
77
77
82
82
74
82
82
67
55
54
60
61
49
66
69
67
56
42
49
45
40
40
35
37
37
33
34
32
44
47
47
44
45
49
44
39
39
47
55
57
54
63
54
52
50
52
113
154
155
156
157
157
157
158
158
159
157
157
157
157
157
156
155
156
156
156
155
155
127
127
126
127
127
127
128
130
131
131
132
130
130
132
132
131
133
129
113
119
108
106
115
97
99
95
86
66
76
76
75
82
71
72
77
83
74
79
79
61
55
51
58
58
48
55
63
58
55
38
44
43
39
36
31
37
36
34
35
36
43
44
44
41
47
45
39
39
37
58
61
54
55
62
54
46
48
85
151
153
156
155
156
157
158
158
157
159
157
157
157
157
157
157
156
156
157
155
156
156
126
126
126
127
127
128
129
130
131
132
132
132
132
132
133
132
132
133
120
116
108
103
105
98
93
93
86
62
72
71
74
81
72
74
78
85
74
80
72
63
48
50
57
57
44
51
59
59
52
34
45
42
38
33
32
37
34
34
34
40
45
43
39
48
44
39
38
36
44
55
57
54
56
57
51
49
86
150
152
154
155
156
158
157
158
158
158
157
158
158
157
156
157
157
156
155
155
156
156
156
125
126
126
127
127
129
128
129
130
131
131
132
132
132
131
132
132
132
130
112
108
102
101
101
82
89
82
63
68
76
74
71
65
72
82
88
76
77
65
57
50
53
54
51
40
50
56
53
47
34
40
37
34
28
31
30
32
30
33
43
40
40
42
43
39
36
36
38
52
55
53
52
55
48
50
73
147
150
153
153
155
155
157
157
158
158
158
157
157
157
157
157
157
156
157
156
156
156
156
155
125
126
125
126
127
127
128
130
130
131
130
132
132
131
131
132
132
133
133
111
106
96
96
96
76
78
75
60
65
74
77
68
63
74
84
91
77
72
67
58
54
50
51
50
37
46
54
50
41
32
38
33
30
27
34
29
28
31
41
40
36
39
39
35
35
34
32
50
53
51
51
47
48
50
90
147
151
151
154
154
155
156
157
158
158
158
157
158
158
157
157
157
157
158
157
156
156
157
156
156
125
126
126
127
127
128
129
130
130
131
131
132
131
132
131
131
132
132
132
125
101
95
85
90
83
74
76
66
65
73
73
72
61
72
81
94
74
70
66
60
53
49
47
45
37
45
49
44
37
34
35
33
28
31
31
29
30
36
43
36
38
38
33
34
34
34
43
55
53
49
48
49
51
91
148
149
150
152
154
154
155
156
157
158
157
158
157
158
157
157
157
156
157
157
156
156
156
156
155
156
124
126
126
127
126
127
128
129
130
130
131
131
131
131
133
131
132
132
131
133
101
92
80
88
86
73
79
73
59
69
72
72
60
69
81
87
63
64
60
55
48
43
49
41
34
42
47
44
37
32
31
30
28
30
30
27
31
37
35
37
37
32
32
31
31
34
55
48
47
45
47
52
108
147
148
149
150
153
154
155
156
156
158
157
158
158
158
157
157
158
157
157
157
156
157
156
157
156
156
156
124
124
126
127
127
128
129
130
130
131
131
131
130
132
131
131
132
132
132
131
121
88
86
75
79
67
69
69
54
60
64
67
60
70
75
78
61
59
57
57
50
44
47
31
30
39
41
42
33
31
29
28
26
27
27
27
35
40
34
34
33
30
30
31
30
50
50
42
44
45
61
116
148
147
149
150
152
153
154
154
157
157
157
158
158
158
158
157
158
157
157
157
156
156
156
156
156
156
155
156
124
125
126
126
127
127
128
129
130
132
131
130
131
131
130
131
132
131
132
132
130
94
83
72
67
62
59
64
48
57
58
67
57
68
69
73
54
65
69
57
49
42
46
30
32
36
40
36
31
29
28
25
26
25
25
30
35
32
32
29
28
26
28
29
42
50
43
42
38
75
138
144
146
147
149
151
152
153
155
156
156
158
158
159
158
157
159
157
157
157
157
156
158
156
155
156
156
156
155
155
124
125
125
126
128
127
129
129
129
131
130
131
129
131
130
131
132
131
131
131
132
114
86
75
61
59
53
56
50
46
58
59
51
59
68
67
57
62
60
47
43
42
42
28
30
35
36
31
29
28
25
23
25
25
26
32
31
32
26
27
26
27
27
34
48
41
41
42
78
148
145
145
146
147
150
151
152
154
156
156
157
157
157
158
158
158
158
158
158
157
157
157
157
156
156
157
156
155
155
154
125
125
125
126
127
127
129
129
130
128
130
130
130
130
131
131
131
131
131
131
132
132
97
84
69
61
53
51
51
38
52
52
49
57
65
66
56
56
53
40
40
38
39
26
29
34
33
29
28
25
24
23
24
23
29
30
30
27
23
24
25
26
33
51
42
39
42
31
76
144
145
146
148
149
150
152
152
155
155
157
156
158
157
158
158
157
157
158
157
157
156
156
156
156
156
156
156
156
155
155
124
124
125
126
127
128
128
129
129
130
131
130
131
130
132
131
131
132
131
132
132
133
118
92
75
62
59
53
50
38
42
47
48
55
63
64
53
58
53
40
35
35
35
27
29
32
30
26
26
24
23
24
22
25
30
28
25
22
25
25
27
31
47
45
39
37
27
40
119
145
146
146
148
151
152
153
154
155
156
157
157
157
158
157
159
157
158
159
158
157
157
157
157
157
155
156
156
155
155
155
124
126
125
126
127
128
128
129
129
130
131
131
130
130
130
130
131
132
132
132
133
132
131
93
81
70
63
57
50
49
39
46
47
47
60
63
51
57
48
39
33
38
37
26
26
30
27
25
24
23
22
23
21
29
27
26
22
23
22
23
29
50
47
37
20
22
19
92
145
145
146
147
149
151
152
153
154
154
156
157
158
158
158
158
158
158
158
158
157
156
157
157
156
157
155
155
156
156
154
154
124
125
125
126
128
127
127
129
130
129
129
130
131
131
131
131
131
131
132
132
132
133
133
119
82
79
66
66
56
54
44
46
49
41
57
59
49
58
46
36
34
38
35
26
27
28
27
25
24
22
22
22
24
28
26
21
20
19
19
29
51
48
28
12
17
19
44
133
145
147
147
149
150
151
152
154
155
156
157
157
157
158
157
159
157
158
157
157
158
157
156
157
156
157
156
156
156
155
156
155
125
125
126
127
127
128
128
130
129
130
130
130
131
131
131
132
132
132
132
133
133
133
134
134
97
94
78
67
63
54
47
41
51
42
56
59
49
50
44
38
36
37
34
25
25
27
26
22
23
22
22
22
25
25
22
20
19
19
33
51
50
23
14
20
20
32
120
144
145
145
148
149
151
152
154
154
156
156
157
157
157
158
158
157
157
157
157
158
157
156
156
156
156
156
156
155
155
154
155
154
125
126
127
128
127
128
128
129
130
130
129
130
131
131
132
131
132
133
133
133
133
133
133
135
121
90
94
67
69
54
60
46
55
48
53
57
50
54
40
37
40
37
38
23
24
26
24
22
22
20
21
23
25
23
20
20
17
37
53
50
27
17
22
23
21
57
137
145
147
148
149
150
152
152
154
154
155
156
157
157
158
158
157
158
159
156
157
157
157
156
156
156
156
155
155
156
155
155
155
155
125
126
127
128
128
129
128
130
130
131
131
132
131
131
132
133
133
134
133
134
134
134
134
134
132
98
92
86
72
60
63
51
56
52
49
60
51
57
42
43
41
36
38
22
25
24
22
22
22
21
21
25
25
19
19
18
44
53
52
33
19
23
27
25
24
25
84
145
148
149
151
151
153
154
155
155
156
156
157
158
158
159
158
157
158
158
158
158
157
157
157
155
156
156
157
156
155
155
155
155
126
127
127
127
130
129
129
130
130
131
131
132
131
132
133
133
134
135
134
134
134
135
134
134
136
121
93
86
72
69
63
57
53
59
52
60
55
55
47
50
44
40
39
25
22
24
22
22
22
22
22
23
21
19
20
42
54
50
39
20
25
24
27
24
21
25
45
144
148
150
150
153
153
154
155
155
157
157
157
158
157
157
159
157
158
158
157
157
157
156
156
157
156
155
155
155
155
156
155
155
127
128
128
129
129
130
130
130
130
132
131
132
132
134
133
135
135
135
135
135
136
135
135
136
136
136
104
98
71
70
61
63
58
63
61
64
56
52
49
46
46
41
41
33
22
22
22
23
21
23
21
20
18
16
46
50
52
48
23
22
24
21
22
21
21
21
67
149
149
152
151
153
154
155
156
157
156
157
157
158
157
158
156
157
157
157
157
157
157
156
156
156
156
156
156
156
155
155
155
154
128
129
128
128
130
129
131
131
131
131
132
132
133
134
135
134
135
135
136
136
137
135
137
137
137
137
127
97
82
74
64
68
59
67
58
63
57
55
51
43
54
45
41
39
20
21
22
21
21
21
21
18
21
45
50
51
48
28
19
17
17
19
21
21
20
44
129
145
151
152
152
153
154
156
156
156
157
157
158
158
158
157
158
157
157
156
157
157
157
156
156
156
156
156
155
156
155
155
154
155
129
129
130
131
130
131
130
131
131
132
132
133
133
136
135
136
137
136
136
138
137
136
136
137
136
138
139
110
87
76
72
70
60
66
60
63
58
55
54
50
55
44
39
38
25
20
21
20
22
21
19
21
45
45
48
48
33
15
14
15
16
18
17
20
49
131
128
125
151
152
153
154
155
155
156
157
157
158
158
158
158
157
157
158
157
157
156
156
157
156
156
156
155
155
156
155
155
154
155
155
130
130
130
130
130
130
131
130
132
133
133
134
135
135
136
136
138
138
138
137
137
138
137
137
137
139
138
137
96
73
73
73
69
68
61
65
64
54
57
49
51
46
35
33
27
19
22
21
20
19
26
43
41
44
44
41
16
14
16
17
19
21
18
26
83
89
77
141
153
153
154
154
156
156
156
157
157
157
158
158
157
158
157
156
157
157
157
157
157
156
156
155
155
156
156
154
154
155
154
155
131
131
131
131
130
131
131
131
133
133
133
134
135
137
137
138
139
139
139
138
137
137
137
138
138
139
140
141
127
79
76
69
76
65
64
61
65
52
53
48
46
41
33
31
31
19
19
20
18
30
40
38
43
45
43
25
14
17
17
20
19
19
16
48
48
41
116
152
153
154
154
155
156
156
157
157
157
158
158
157
158
157
157
157
156
156
156
157
156
155
156
156
155
155
155
155
155
155
154
153
131
132
133
132
131
130
131
131
132
133
134
135
136
137
139
139
139
139
140
139
138
139
139
138
139
140
140
142
143
114
72
72
78
61
68
62
63
53
49
43
36
37
31
29
31
28
18
19
30
34
33
36
39
43
33
16
17
20
20
21
18
17
35
54
50
106
152
153
155
155
155
156
157
157
157
156
157
158
157
158
158
158
157
157
156
155
155
156
156
155
156
155
155
155
155
154
154
154
154
154
133
133
134
132
132
131
131
132
132
133
135
137
137
139
139
140
140
141
140
141
140
139
140
139
140
141
141
142
145
145
96
68
72
61
66
54
51
40
39
33
30
32
28
26
27
32
16
30
32
28
30
31
38
36
19
18
19
19
21
18
16
25
64
87
137
152
154
154
155
155
156
156
157
156
157
158
157
157
158
158
157
157
158
156
156
156
156
156
156
156
156
155
155
155
156
153
154
154
154
153
134
133
134
133
133
133
132
132
133
133
135
137
137
140
140
141
141
142
142
140
141
141
140
140
140
141
141
143
144
144
135
75
65
56
44
34
33
49
37
26
24
24
23
24
24
27
24
30
26
25
27
27
28
19
15
18
21
21
21
20
28
105
139
153
154
154
155
155
156
155
156
157
157
157
158
158
157
158
158
157
157
158
156
158
155
156
156
156
156
155
156
155
155
155
154
154
154
154
153
152
135
136
135
134
133
133
133
133
134
135
136
139
139
142
142
144
143
142
143
142
142
142
141
141
141
141
143
143
144
145
147
134
59
36
35
31
23
24
49
48
25
19
21
20
22
26
24
22
24
25
25
21
16
18
17
19
21
24
26
24
98
149
153
153
154
155
155
156
155
156
157
157
157
158
157
158
157
158
158
157
158
157
156
157
157
157
156
156
156
155
155
155
155
154
154
154
155
154
154
154
137
137
136
136
135
133
133
133
134
135
137
139
141
142
143
144
144
144
144
144
143
143
142
141
142
142
144
144
146
145
146
148
104
30
29
25
23
22
39
59
53
31
21
17
20
19
19
19
21
20
17
15
15
16
20
21
23
23
37
105
151
153
155
154
155
157
156
156
157
157
157
158
157
157
157
157
157
157
157
158
157
157
156
156
157
156
155
157
156
155
156
154
155
154
155
155
154
154
154
153
138
138
138
136
135
134
133
134
134
136
138
141
142
143
145
146
146
145
145
145
144
143
143
142
143
144
145
145
146
147
148
148
147
56
40
32
26
32
27
55
62
50
36
18
14
14
14
17
20
20
16
13
12
15
20
22
27
43
126
152
153
155
155
156
155
156
157
157
157
156
157
157
158
157
158
157
157
158
157
157
157
157
157
157
156
156
156
155
156
156
155
156
155
155
154
155
154
154
153
153
139
139
139
137
137
134
134
134
136
137
139
141
143
145
146
147
147
147
147
145
145
144
143
144
143
144
145
146
146
148
147
148
150
129
147
130
57
29
25
50
67
63
47
34
20
15
19
20
23
19
17
15
14
16
19
24
58
145
155
154
155
155
156
156
156
156
157
157
158
157
157
157
157
158
158
157
157
157
157
157
157
156
157
156
157
155
155
156
156
155
155
155
155
154
154
154
154
154
154
154
140
140
140
138
137
134
135
135
135
138
140
143
144
147
147
148
149
147
147
145
146
145
145
144
144
144
145
147
147
147
147
149
149
149
151
144
113
88
39
36
64
68
63
44
34
22
19
21
26
21
21
18
21
19
19
20
37
150
155
156
155
156
157
155
158
157
158
157
157
156
157
157
157
157
157
157
157
158
157
156
157
157
156
156
155
156
156
156
156
156
155
156
154
154
154
154
154
154
153
154
142
142
141
139
138
136
135
134
135
139
141
144
146
147
149
149
149
149
148
148
147
146
145
145
144
145
147
147
147
148
148
150
149
150
148
116
103
119
86
39
34
63
67
66
38
36
32
25
29
29
23
21
19
20
23
22
24
131
157
155
156
156
157
157
157
157
157
157
157
157
157
157
157
157
156
157
157
156
156
156
157
157
156
156
155
156
155
155
155
154
154
155
154
154
154
154
154
153
153
153
144
144
142
141
138
136
136
138
137
139
141
145
147
149
150
150
150
150
149
149
147
146
146
145
145
146
146
147
147
148
148
149
150
150
151
132
113
122
116
89
41
32
65
64
57
37
35
39
27
30
25
24
25
37
42
34
26
116
158
156
157
157
157
157
158
158
157
157
157
158
157
157
157
157
157
157
157
157
156
156
157
157
156
155
155
155
156
156
155
155
155
154
154
154
155
154
154
154
153
153
144
143
142
141
139
137
136
137
138
140
142
145
148
149
150
151
151
151
149
147
146
146
146
146
145
145
146
147
147
147
149
149
150
151
152
153
146
121
118
106
86
53
49
58
68
40
44
38
36
26
24
28
36
45
46
42
36
69
160
157
157
157
157
157
157
157
158
157
157
158
157
157
157
157
157
157
157
156
156
156
156
156
156
156
156
155
156
154
155
154
154
155
154
154
154
153
154
153
153
152
144
144
143
142
139
137
137
135
138
140
143
145
148
150
151
150
151
151
150
148
147
146
146
146
146
146
146
147
148
149
149
149
150
151
151
152
153
123
118
108
88
68
62
64
65
54
47
43
35
41
28
29
32
35
39
37
36
49
157
157
157
157
157
157
157
157
157
157
157
157
157
157
157
157
156
156
156
156
156
157
156
156
156
155
155
155
155
155
154
154
154
154
154
154
154
154
153
153
153
152
145
144
143
141
140
137
136
136
137
140
142
146
148
150
151
151
151
150
149
149
147
147
146
145
146
146
146
147
147
149
149
151
150
151
152
154
155
134
114
109
98
66
43
45
69
62
47
55
40
33
40
29
28
31
38
39
32
37
148
156
157
157
157
157
157
157
158
157
158
157
157
157
156
157
156
156
156
156
156
156
156
155
155
156
154
155
155
155
155
155
155
153
153
153
153
153
153
153
153
153
145
146
144
142
139
137
137
136
138
141
144
146
148
150
151
151
151
149
149
148
148
145
146
146
147
146
147
147
148
149
149
150
150
153
153
154
155
151
116
108
91
73
46
34
50
59
48
64
60
39
42
37
27
27
29
35
32
31
115
156
157
157
157
157
157
157
156
157
157
157
157
157
157
156
156
157
157
156
156
155
155
156
156
155
155
155
155
155
155
153
154
153
154
154
153
152
153
153
153
152
146
145
143
141
139
137
136
136
138
140
143
145
147
150
150
151
150
149
149
147
147
146
146
147
146
146
146
148
148
148
150
149
151
151
153
154
154
156
129
107
96
77
51
39
41
57
50
59
70
56
42
44
40
26
25
32
33
34
85
157
157
156
157
157
157
156
157
156
157
157
157
157
157
156
156
156
156
156
156
155
155
155
156
155
155
156
154
154
155
155
154
154
154
152
154
153
153
152
153
152
145
143
144
141
139
136
137
137
137
140
142
146
148
150
150
150
150
149
149
147
147
146
146
147
146
147
147
147
148
148
149
150
150
152
153
154
154
155
138
105
94
80
65
51
45
45
66
65
67
68
55
42
44
38
30
30
33
32
60
159
156
158
157
157
157
156
156
156
157
157
157
157
156
156
155
155
156
156
155
155
156
154
156
155
155
155
155
155
155
154
154
154
153
153
152
153
152
152
152
152
144
144
142
140
138
136
135
135
137
139
142
144
148
149
150
150
150
149
148
147
148
147
145
145
147
147
147
149
147
149
150
150
151
152
153
154
154
155
149
115
96
81
72
71
64
45
57
72
70
63
62
53
48
42
38
31
30
30
38
150
158
157
157
157
157
157
157
157
157
156
157
156
156
156
156
156
156
155
155
156
156
155
155
155
154
155
155
154
154
153
154
153
153
153
153
153
152
153
152
152
